<svg width="2482" height="1728" viewBox="0 0 2482 1728" fill="none" xmlns="http://www.w3.org/2000/svg">
<path d="M569 1025.5L479.5 1041L353 1286.5L366.5 1334L479.5 1161.85M569 1025.5L921.5 1232.01M569 1025.5L544.713 1062.5M1000 1278L976 1354.5M1000 1278L1196.5 842M1000 1278L921.5 1232.01M976 1354.5L1445.5 969.5M976 1354.5L1105 1485.5M976 1354.5L1000 1649M1445.5 969.5L1544.5 1009.5M1445.5 969.5L1391.5 941.849M1196.5 842H1164.5M1196.5 842L1391.5 941.849M1164.5 842L31 665L433.5 1105M1164.5 842L921.5 1232.01M479.5 1161.85L609 1298.5H666.5M479.5 1161.85L510.252 1115M666.5 1298.5L921.5 1625L945.5 1589M666.5 1298.5L542 1123.5L510.252 1115M945.5 1589L1000 1649M945.5 1589L544.713 1062.5M1000 1649L1105 1485.5M1105 1485.5L1178.5 1543.5L2444.5 1711.5L1697.5 1064.5L1544.5 1009.5M1544.5 1009.5L1980 7L1391.5 941.849M510.252 1115L544.713 1062.5" stroke="black" stroke-width="23"/>
</svg>
